<svg xmlns="http://www.w3.org/2000/svg" width="10.397" height="20.327" viewBox="0 0 10.397 20.327">
  <g id="right-arrow" transform="translate(10.397 20.327) rotate(180)">
    <g id="Group_1988" data-name="Group 1988" transform="translate(0)">
      <path id="Path_5579" data-name="Path 5579" d="M10.146,9.515h0L1.518.321A.826.826,0,0,0,.3.221a.962.962,0,0,0-.094,1.3.888.888,0,0,0,.094.1L7.454,9.249a1.4,1.4,0,0,1,.477.915,1.436,1.436,0,0,1-.477.924L.3,18.709a.962.962,0,0,0-.094,1.3.826.826,0,0,0,1.217.1.89.89,0,0,0,.094-.1l8.628-9.194A.963.963,0,0,0,10.146,9.515Z" fill="#fff"/>
    </g>
  </g>
</svg>
