<svg xmlns="http://www.w3.org/2000/svg" width="11.833" height="23.667" viewBox="0 0 11.833 23.667">
  <g id="Group_2081" data-name="Group 2081" transform="translate(0 23.667) rotate(-90)">
    <g id="Group_5" data-name="Group 5" transform="translate(0 0)">
      <path id="Path_25" data-name="Path 25" d="M23.4,5.241h0L18.564.278a.9.9,0,0,0-1.307,0,.976.976,0,0,0,0,1.35L20.5,4.962H.924a.955.955,0,0,0,0,1.909H20.5L17.26,10.2a.976.976,0,0,0,0,1.35.9.9,0,0,0,1.307,0l4.831-4.962h0A.977.977,0,0,0,23.4,5.241Z" fill="#fff"/>
    </g>
  </g>
</svg>
