<svg xmlns="http://www.w3.org/2000/svg" width="11.827" height="6.049" viewBox="0 0 11.827 6.049">
  <g id="right-arrow" transform="translate(11.827) rotate(90)">
    <g id="Group_1988" data-name="Group 1988" transform="translate(0 0)">
      <path id="Path_5579" data-name="Path 5579" d="M5.9,5.536h0L.883.187A.481.481,0,0,0,.175.129.559.559,0,0,0,.121.883.516.516,0,0,0,.175.941l4.161,4.44a.817.817,0,0,1,.278.532.836.836,0,0,1-.278.538L.175,10.886a.56.56,0,0,0-.055.754.481.481,0,0,0,.708.058.518.518,0,0,0,.055-.058L5.9,6.29A.56.56,0,0,0,5.9,5.536Z" fill="#fff"/>
    </g>
  </g>
</svg>
