<svg xmlns="http://www.w3.org/2000/svg" width="29.799" height="22.5" viewBox="0 0 29.799 22.5">
  <g id="mail" transform="translate(-710 -273)">
    <g id="Group_1935" data-name="Group 1935" transform="translate(710 273)">
      <path id="Path_4593" data-name="Path 4593" d="M27.18,76H2.619A2.725,2.725,0,0,0,0,78.813V95.688A2.725,2.725,0,0,0,2.619,98.5H27.18A2.724,2.724,0,0,0,29.8,95.688V78.813A2.724,2.724,0,0,0,27.18,76Zm-.367,1.875L16.751,88.623a2.494,2.494,0,0,1-3.706,0L2.986,77.875ZM1.746,95.306V79.2l7.545,8.06Zm1.241,1.319,7.542-8.048,1.284,1.371a4.156,4.156,0,0,0,6.171,0l1.285-1.373,7.542,8.048Zm25.066-1.319-7.545-8.051,7.545-8.06Z" transform="translate(0 -76)" fill="#c7bfb4"/>
    </g>
  </g>
</svg>
