<svg xmlns="http://www.w3.org/2000/svg" width="29.799" height="29.942" viewBox="0 0 29.799 29.942">
  <path id="whatsapp" d="M25.707,4.351a14.841,14.841,0,0,0-23.352,17.9L.25,29.942l7.865-2.063a14.821,14.821,0,0,0,7.09,1.806h.006a14.843,14.843,0,0,0,10.5-25.333Zm-10.5,22.828h-.005A12.317,12.317,0,0,1,8.93,25.46l-.45-.267L3.812,26.417l1.246-4.551L4.765,21.4a12.332,12.332,0,1,1,10.447,5.779Zm6.764-9.236c-.371-.186-2.193-1.082-2.533-1.206s-.587-.185-.834.186-.958,1.206-1.174,1.453-.432.279-.8.093a10.126,10.126,0,0,1-2.981-1.84,11.183,11.183,0,0,1-2.062-2.568c-.216-.371,0-.553.163-.757a10.487,10.487,0,0,0,.927-1.268.682.682,0,0,0-.031-.65c-.092-.185-.834-2.01-1.143-2.753-.3-.723-.607-.625-.834-.636s-.463-.013-.711-.013a1.362,1.362,0,0,0-.989.464,4.158,4.158,0,0,0-1.3,3.093,7.212,7.212,0,0,0,1.514,3.835,16.525,16.525,0,0,0,6.333,5.6,21.219,21.219,0,0,0,2.114.781,5.082,5.082,0,0,0,2.335.147,3.819,3.819,0,0,0,2.5-1.763,3.1,3.1,0,0,0,.216-1.763c-.092-.155-.34-.247-.71-.433Zm0,0" transform="translate(-0.25)" fill="#c7bfb4" fill-rule="evenodd"/>
</svg>
