<svg xmlns="http://www.w3.org/2000/svg" width="20.333" height="21.852" viewBox="0 0 20.333 21.852">
  <g id="google-maps" transform="translate(-0.309 -0.001)">
    <path id="Path_5701" data-name="Path 5701" d="M17.589,72.594H2.342A2.033,2.033,0,0,1,.309,70.561V55.314a2.033,2.033,0,0,1,2.033-2.033h9.117V54.3H2.342a1.016,1.016,0,0,0-1.016,1.016V70.561a1.016,1.016,0,0,0,1.016,1.016H17.589a1.016,1.016,0,0,0,1.017-1.016v-11.8h1.016v11.8a2.033,2.033,0,0,1-2.033,2.033Zm0,0" transform="translate(0 -50.741)" fill="#313448"/>
    <path id="Path_5702" data-name="Path 5702" d="M174.043,270.524l.719-.719,8.132,8.132-.719.719Zm0,0" transform="translate(-165.456 -256.948)" fill="#313448"/>
    <path id="Path_5703" data-name="Path 5703" d="M12.777,200.007l11.554-11.554.719.719L13.5,200.726Zm0,0" transform="translate(-11.874 -179.472)" fill="#313448"/>
    <path id="Path_5704" data-name="Path 5704" d="M279.674,68.015a2.033,2.033,0,1,1,2.033-2.033A2.033,2.033,0,0,1,279.674,68.015Zm0-3.049a1.016,1.016,0,1,0,1.016,1.017A1.017,1.017,0,0,0,279.674,64.965Zm0,0" transform="translate(-264.118 -60.901)" fill="#313448"/>
    <path id="Path_5705" data-name="Path 5705" d="M56.95,113.215a3.3,3.3,0,1,1,2.865-4.949l-.883.508a2.287,2.287,0,1,0,.178,1.9H56.7v-1.016h3.6l-.051.553A3.284,3.284,0,0,1,56.95,113.215Zm0,0" transform="translate(-50.796 -101.527)" fill="#313448"/>
    <path id="Path_5706" data-name="Path 5706" d="M218.782,16.586l-.483-1.525a18.725,18.725,0,0,0-1.912-4.193l-1.925-3.113a5.082,5.082,0,1,1,8.646,0l-1.925,3.113a18.727,18.727,0,0,0-1.912,4.193Zm0-15.571a4.066,4.066,0,0,0-3.456,6.207l1.925,3.113a19.258,19.258,0,0,1,1.531,3.056,19.258,19.258,0,0,1,1.531-3.062l1.925-3.113a4.066,4.066,0,0,0-3.456-6.2Zm0,0" transform="translate(-203.227)" fill="#313448"/>
  </g>
</svg>
