<svg xmlns="http://www.w3.org/2000/svg" xmlns:xlink="http://www.w3.org/1999/xlink" width="294.309" height="68.223" viewBox="0 0 294.309 68.223">
  <defs>
    <clipPath id="clip-path">
      <rect id="Rectangle_2111" data-name="Rectangle 2111" width="15.085" height="13.13" transform="translate(0 0)" fill="none" stroke="#313448" stroke-width="1"/>
    </clipPath>
  </defs>
  <g id="head-all" transform="translate(4700.309 10024.744)">
    <text id="PRZOD" transform="translate(-4700.309 -9973.521)" fill="#313448" font-size="14" font-family="Barlow-Medium, Barlow" font-weight="500"><tspan x="2.583" y="14">PRZOD</tspan></text>
    <text id="TYŁ" transform="translate(-4572.417 -9973.521)" fill="#313448" font-size="14" font-family="Barlow-Medium, Barlow" font-weight="500"><tspan x="-12.425" y="14">TYŁ</tspan></text>
    <text id="PRAWY_PROFIL" data-name="PRAWY PROFIL" transform="translate(-4640.915 -9973.521)" fill="#313448" font-size="14" font-family="Barlow-Medium, Barlow" font-weight="500"><tspan x="6.45" y="14">PRAWY </tspan></text>
    <g id="Group_2729" data-name="Group 2729" transform="translate(-4690.062 -10016.922)">
      <path id="Path_5990" data-name="Path 5990" d="M74.919,314.725c-.971,4.907-2.467,7.871-4.715,10.459-2.831,3.259-8.314,3.324-11.638,0-2.527-2.527-4.041-5.675-4.94-11.109" transform="translate(-50.288 -293.858)" fill="none" stroke="#313448" stroke-linecap="round" stroke-linejoin="round" stroke-width="1"/>
      <path id="Path_5991" data-name="Path 5991" d="M5.346,264.723c-1.067,2.489.388,8.183,3.6,6.514" transform="translate(-5 -247.894)" fill="none" stroke="#313448" stroke-linecap="round" stroke-linejoin="round" stroke-width="1"/>
      <path id="Path_5992" data-name="Path 5992" d="M359.961,264.173c1.1,2.469-.354,8.229-3.584,6.552" transform="translate(-332.256 -247.381)" fill="none" stroke="#313448" stroke-linecap="round" stroke-linejoin="round" stroke-width="1"/>
      <path id="Path_5993" data-name="Path 5993" d="M20.856,51.926c0,4.191.294,6.5.684,6.69,2.937,1.447.6-8.582,6.021-9.866,0,0,1.323-.2,1.348-2.038a2.005,2.005,0,0,0-.426-1.276,2.085,2.085,0,0,0-2.6-.5C22.926,46.482,20.856,48.875,20.856,51.926Z" transform="translate(-19.768 -42.964)" fill="none" stroke="#e99c28" stroke-linecap="round" stroke-linejoin="round" stroke-width="1" stroke-dasharray="1 3"/>
      <path id="Path_5994" data-name="Path 5994" d="M147.6,20.143a18.939,18.939,0,0,0-10.013.207" transform="translate(-128.482 -19.566)" fill="none" stroke="#313448" stroke-linecap="round" stroke-linejoin="round" stroke-width="1"/>
      <path id="Path_5995" data-name="Path 5995" d="M290.591,47.893a8.132,8.132,0,0,0-3.886-5.225,2.09,2.09,0,0,0-2.874.652,1.769,1.769,0,0,0-.208.933,2.069,2.069,0,0,0,1.123,2.074c4.8,1.832,3.339,11.255,6.117,10.04C291.485,56.094,291.05,49.89,290.591,47.893Z" transform="translate(-264.496 -40.79)" fill="none" stroke="#e99c28" stroke-linecap="round" stroke-linejoin="round" stroke-width="1" stroke-dasharray="1 3"/>
    </g>
    <g id="Group_2730" data-name="Group 2730" transform="translate(-4625.676 -10016.922)">
      <g id="Group_2584" data-name="Group 2584" transform="translate(0 0)">
        <path id="Path_5996" data-name="Path 5996" d="M548.485,314.725c-.971,4.907-2.467,7.871-4.715,10.459-2.831,3.259-8.314,3.324-11.638,0-2.527-2.527-4.042-5.675-4.94-11.109" transform="translate(-523.854 -293.858)" fill="none" stroke="#313448" stroke-linecap="round" stroke-linejoin="round" stroke-width="1"/>
        <path id="Path_5997" data-name="Path 5997" d="M478.912,264.723c-1.067,2.489.388,8.183,3.6,6.514" transform="translate(-478.566 -247.894)" fill="none" stroke="#313448" stroke-linecap="round" stroke-linejoin="round" stroke-width="1"/>
        <path id="Path_5998" data-name="Path 5998" d="M833.527,264.173c1.1,2.469-.354,8.229-3.584,6.552" transform="translate(-805.822 -247.381)" fill="none" stroke="#313448" stroke-linecap="round" stroke-linejoin="round" stroke-width="1"/>
        <path id="Path_5999" data-name="Path 5999" d="M621.162,20.143a18.939,18.939,0,0,0-10.013.207" transform="translate(-602.047 -19.566)" fill="none" stroke="#313448" stroke-linecap="round" stroke-linejoin="round" stroke-width="1"/>
        <path id="Path_6000" data-name="Path 6000" d="M507.064,64.366s-4.252,0-5.3-1.37a42.64,42.64,0,0,0-7.032-6.7c-.622-.272-.187-6.477.272-8.474a8.132,8.132,0,0,1,3.886-5.225,2.09,2.09,0,0,1,2.874.652s1.458,5.345,5.3,5.161,4.254-2.7,5.6-5.161a2.064,2.064,0,0,1,2.874-.652,8.132,8.132,0,0,1,3.886,5.225c.459,2,.894,8.2.272,8.474a42.643,42.643,0,0,0-7.032,6.7c-1.049,1.37-5.3,1.37-5.3,1.37" transform="translate(-493.333 -40.721)" fill="none" stroke="#e99c28" stroke-linecap="round" stroke-linejoin="round" stroke-width="1" stroke-dasharray="1 3"/>
      </g>
    </g>
    <g id="Group_2733" data-name="Group 2733" transform="translate(-4563.625 -10018.735)">
      <g id="Group_2583" data-name="Group 2583" transform="translate(0 0)">
        <path id="Path_6006" data-name="Path 6006" d="M1036.911,406.328h0a.727.727,0,0,1,.185.69l-.189,1.1a2.482,2.482,0,0,0,3.077,3.008l7.45-2.1a3.354,3.354,0,0,0,2.114-1.776l.227-.473" transform="translate(-1033.356 -378.778)" fill="none" stroke="#313448" stroke-linecap="round" stroke-linejoin="round" stroke-width="1"/>
        <path id="Path_6007" data-name="Path 6007" d="M991.442,30.968s-.637,0-2.712-.249c-1.518-.182.575-2.32-.4-2.849l-.653-.341c-1.106-.577-2.016-1.195-.832-3.033l2.1-3.811a1.992,1.992,0,0,0-.163-2.324l-.349-.418a.715.715,0,0,1-.166-.405,6.842,6.842,0,0,1,.117-1.524A15.286,15.286,0,0,1,992.3,9.024c1.394-1.373,7.055-4.624,13.4-3.928,4.892.536,7.858,2.641,9.112,6.5" transform="translate(-986.29 -5)" fill="none" stroke="#313448" stroke-linecap="round" stroke-linejoin="round" stroke-width="1"/>
        <path id="Path_6008" data-name="Path 6008" d="M1174.948,477.034a13.2,13.2,0,0,1,1.882,3.391" transform="translate(-1161.997 -444.63)" fill="none" stroke="#313448" stroke-linecap="round" stroke-linejoin="round" stroke-width="1"/>
        <g id="Group_2581" data-name="Group 2581" transform="translate(13.133 6.83)">
          <path id="Path_6010" data-name="Path 6010" d="M1193.661,108.127a10.663,10.663,0,0,1-.027,1.939c-.671,6.518-2.363,8.571-3.286,11.4a1.022,1.022,0,0,1-1.559.529c-1.687-1.195-2.716-2.422-2.416-3.18,1.605-4.051.069-7.367-2.058-7.365-.628,0-2,.217-2.548,2.275-.284,1.066-.4,1.222-1.664,1.048-1.993-.275-1.531-.716-1.685-2.769a14.643,14.643,0,0,0-.533-2.941c-.721-2.512-.267-5.355,3.354-4.369,1.535.418,3.219.892,4.812,1.253a15.276,15.276,0,0,0,5.81.3C1193.181,106.054,1193.661,108.127,1193.661,108.127Z" transform="translate(-1177.594 -104.492)" fill="none" stroke="#e99c28" stroke-linecap="round" stroke-linejoin="round" stroke-width="1" stroke-dasharray="1 3"/>
        </g>
        <path id="Path_6011" data-name="Path 6011" d="M1352.135,390.683c-1.776-3.436-2.352-5.744-2.434-7.4" transform="translate(-1324.754 -357.317)" fill="none" stroke="#313448" stroke-linecap="round" stroke-linejoin="round" stroke-width="1"/>
      </g>
    </g>
    <g id="Group_2731" data-name="Group 2731" transform="translate(-4699.441 -10024.244)">
      <path id="Path_6019" data-name="Path 6019" d="M-6097-11811.887V-11823h11.391" transform="translate(6097 11823.139)" fill="none" stroke="#313448" stroke-width="1"/>
      <path id="Path_6022" data-name="Path 6022" d="M0,11.113V0H11.39" transform="translate(46.257 46.674) rotate(180)" fill="none" stroke="#313448" stroke-width="1"/>
      <path id="Path_6020" data-name="Path 6020" d="M0,11.113V0H11.39" transform="translate(46.257) rotate(90)" fill="none" stroke="#313448" stroke-width="1"/>
      <path id="Path_6021" data-name="Path 6021" d="M0,11.113V0H11.39" transform="translate(0 46.812) rotate(-90)" fill="none" stroke="#313448" stroke-width="1"/>
    </g>
    <g id="Group_2732" data-name="Group 2732" transform="translate(-4634.771 -10024.244)">
      <path id="Path_6019-2" data-name="Path 6019" d="M-6097-11811.887V-11823h11.391" transform="translate(6097 11823.139)" fill="none" stroke="#313448" stroke-width="1"/>
      <path id="Path_6022-2" data-name="Path 6022" d="M0,11.113V0H11.39" transform="translate(46.257 46.674) rotate(180)" fill="none" stroke="#313448" stroke-width="1"/>
      <path id="Path_6020-2" data-name="Path 6020" d="M0,11.113V0H11.39" transform="translate(46.257) rotate(90)" fill="none" stroke="#313448" stroke-width="1"/>
      <path id="Path_6021-2" data-name="Path 6021" d="M0,11.113V0H11.39" transform="translate(0 46.812) rotate(-90)" fill="none" stroke="#313448" stroke-width="1"/>
    </g>
    <g id="Group_2734" data-name="Group 2734" transform="translate(-4570.552 -10024.244)">
      <path id="Path_6019-3" data-name="Path 6019" d="M-6097-11811.887V-11823h11.391" transform="translate(6097 11823.139)" fill="none" stroke="#313448" stroke-width="1"/>
      <path id="Path_6022-3" data-name="Path 6022" d="M0,11.113V0H11.39" transform="translate(46.257 46.674) rotate(180)" fill="none" stroke="#313448" stroke-width="1"/>
      <path id="Path_6020-3" data-name="Path 6020" d="M0,11.113V0H11.39" transform="translate(46.257) rotate(90)" fill="none" stroke="#313448" stroke-width="1"/>
      <path id="Path_6021-3" data-name="Path 6021" d="M0,11.113V0H11.39" transform="translate(0 46.812) rotate(-90)" fill="none" stroke="#313448" stroke-width="1"/>
    </g>
    <g id="Mask_Group_2588" data-name="Mask Group 2588" transform="translate(-4683.57 -10003.367)" clip-path="url(#clip-path)">
      <path id="Path_6086" data-name="Path 6086" d="M5.856,1.961l-1.9-.59a3.815,3.815,0,0,0-2.071.047l-.633.2" transform="translate(-0.8 -0.8)" fill="none" stroke="#313448" stroke-linecap="round" stroke-linejoin="round" stroke-width="1"/>
      <path id="Path_6087" data-name="Path 6087" d="M17.665,8.179a34.076,34.076,0,0,1-.883,4.618,1.173,1.173,0,0,0,.924,1.421,3.406,3.406,0,0,0,1.269-.023" transform="translate(-10.719 -5.233)" fill="none" stroke="#313448" stroke-linecap="round" stroke-linejoin="round" stroke-width="1"/>
      <path id="Path_6088" data-name="Path 6088" d="M3.353,7.25a1.764,1.764,0,0,0,2.547,0" transform="translate(-2.145 -4.639)" fill="none" stroke="#313448" stroke-linecap="round" stroke-linejoin="round" stroke-width="1"/>
      <path id="Path_6089" data-name="Path 6089" d="M27.84,1.961l1.9-.59a3.815,3.815,0,0,1,2.071.047l.633.2" transform="translate(-17.812 -0.8)" fill="none" stroke="#313448" stroke-linecap="round" stroke-linejoin="round" stroke-width="1"/>
      <path id="Path_6090" data-name="Path 6090" d="M18.949,34.193a7.4,7.4,0,0,1-2.484.363h-.16a7.4,7.4,0,0,1-2.484-.363" transform="translate(-8.843 -21.876)" fill="none" stroke="#313448" stroke-linecap="round" stroke-linejoin="round" stroke-width="1"/>
      <path id="Path_6091" data-name="Path 6091" d="M34,7.25a1.764,1.764,0,0,1-2.547,0" transform="translate(-20.123 -4.639)" fill="none" stroke="#313448" stroke-linecap="round" stroke-linejoin="round" stroke-width="1"/>
    </g>
    <text id="LEWY_PROFIL" data-name="LEWY PROFIL" transform="translate(-4518.226 -9973.521)" fill="#313448" font-size="14" font-family="Barlow-Medium, Barlow" font-weight="500"><tspan x="10.986" y="14">LEWY </tspan></text>
    <text id="CZUBEK_GŁOWY" data-name="CZUBEK GŁOWY" transform="translate(-4458 -9973.521)" fill="#313448" font-size="14" font-family="Barlow-Medium, Barlow" font-weight="500"><tspan x="0.194" y="14">CZUBEK </tspan></text>
    <g id="Group_2736" data-name="Group 2736" transform="translate(-4501.877 -10017.922)">
      <g id="Group_2582" data-name="Group 2582" transform="translate(0 0)">
        <path id="Path_6001" data-name="Path 6001" d="M1741.641,406.328h0a.727.727,0,0,0-.185.69l.189,1.1a2.482,2.482,0,0,1-3.077,3.008l-7.45-2.1a3.354,3.354,0,0,1-2.114-1.776l-.227-.473" transform="translate(-1715.966 -378.778)" fill="none" stroke="#313448" stroke-linecap="round" stroke-linejoin="round" stroke-width="1"/>
        <path id="Path_6002" data-name="Path 6002" d="M1575.909,30.968s.637,0,2.712-.249c1.519-.182-.575-2.32.4-2.849l.653-.341c1.106-.577,2.016-1.195.832-3.033l-2.1-3.811a1.992,1.992,0,0,1,.163-2.324l.349-.418a.714.714,0,0,0,.166-.405,6.838,6.838,0,0,0-.117-1.524,15.289,15.289,0,0,0-3.911-6.989c-1.394-1.373-7.055-4.624-13.4-3.928-4.892.536-7.859,2.641-9.112,6.5" transform="translate(-1551.83 -5)" fill="none" stroke="#313448" stroke-linecap="round" stroke-linejoin="round" stroke-width="1"/>
        <path id="Path_6003" data-name="Path 6003" d="M1753.746,477.034a13.2,13.2,0,0,0-1.882,3.391" transform="translate(-1737.467 -444.63)" fill="none" stroke="#313448" stroke-linecap="round" stroke-linejoin="round" stroke-width="1"/>
        <path id="Path_6004" data-name="Path 6004" d="M1542.194,110.066c.671,6.518,2.363,8.571,3.285,11.4a1.023,1.023,0,0,0,1.56.529c1.687-1.195,2.716-2.422,2.416-3.18-1.605-4.051-.069-7.367,2.058-7.365.628,0,2,.217,2.548,2.275.284,1.066.4,1.222,1.664,1.048,1.993-.275,1.531-.716,1.685-2.769a14.644,14.644,0,0,1,.533-2.941c.721-2.512.267-5.354-3.354-4.369-1.535.418-3.219.892-4.812,1.253a16.027,16.027,0,0,1-7.163.08A8.524,8.524,0,0,0,1542.194,110.066Z" transform="translate(-1542.135 -97.663)" fill="none" stroke="#e99c28" stroke-linecap="round" stroke-linejoin="round" stroke-width="1" stroke-dasharray="1 3"/>
        <path id="Path_6005" data-name="Path 6005" d="M1569.07,390.683c1.776-3.436,2.352-5.744,2.434-7.4" transform="translate(-1567.221 -357.317)" fill="none" stroke="#313448" stroke-linecap="round" stroke-linejoin="round" stroke-width="1"/>
      </g>
    </g>
    <g id="Group_2738" data-name="Group 2738" transform="translate(-4446.915 -10017.922)">
      <path id="Path_6017" data-name="Path 6017" d="M2301.217,77.664c-.105-1.527-1.24-4-4.241-6s1.474-4.844,0-8.424-5.912-5.107-8.325-5.054c-2.414-.053-6.851,1.474-8.325,5.054s3,6.423,0,8.424-4.216,4.475-4.322,6" transform="translate(-2271.512 -56.291)" fill="none" stroke="#e99c28" stroke-linecap="round" stroke-linejoin="round" stroke-width="1" stroke-dasharray="1 3"/>
      <path id="Path_6012" data-name="Path 6012" d="M2275.931,64.367c3.986-1.446,6.615-5.013,7.811-8.895a64.457,64.457,0,0,0,2.04-12.75c0-6.036-6.192-12.1-13.83-12.1s-13.83,6.063-13.83,12.1a61.615,61.615,0,0,0,2.04,12.75,12.746,12.746,0,0,0,7.444,8.775" transform="translate(-2254.858 -30.624)" fill="none" stroke="#313448" stroke-linecap="round" stroke-linejoin="round" stroke-width="1"/>
      <path id="Path_6013" data-name="Path 6013" d="M2212.2,223.172c-1.782-1.019-2.86.919,1,5.613" transform="translate(-2210.586 -209.708)" fill="none" stroke="#313448" stroke-linecap="round" stroke-linejoin="round" stroke-width="1"/>
      <path id="Path_6014" data-name="Path 6014" d="M2671.452,223.172c1.782-1.019,2.861.919-1,5.613" transform="translate(-2638.882 -209.708)" fill="none" stroke="#313448" stroke-linecap="round" stroke-linejoin="round" stroke-width="1"/>
      <path id="Path_6015" data-name="Path 6015" d="M2361.023,453.077a9.5,9.5,0,0,1-3.153-1.81" transform="translate(-2347.759 -422.391)" fill="none" stroke="#313448" stroke-linecap="round" stroke-linejoin="round" stroke-width="1"/>
      <path id="Path_6016" data-name="Path 6016" d="M2515.364,453.077a9.5,9.5,0,0,0,3.153-1.81" transform="translate(-2494.442 -422.391)" fill="none" stroke="#313448" stroke-linecap="round" stroke-linejoin="round" stroke-width="1"/>
      <path id="Path_6018" data-name="Path 6018" d="M2425.829,511.878c-1.1,1.476-1.5,2.981-2.682,2.981s-1.681-1.505-2.69-3.01" transform="translate(-2406.05 -478.814)" fill="none" stroke="#313448" stroke-linecap="round" stroke-linejoin="round" stroke-width="1"/>
    </g>
    <g id="Group_2735" data-name="Group 2735" transform="translate(-4511.874 -10024.244)">
      <path id="Path_6019-4" data-name="Path 6019" d="M-6097-11811.887V-11823h11.391" transform="translate(6097 11823.139)" fill="none" stroke="#313448" stroke-width="1"/>
      <path id="Path_6022-4" data-name="Path 6022" d="M0,11.113V0H11.39" transform="translate(46.257 46.674) rotate(180)" fill="none" stroke="#313448" stroke-width="1"/>
      <path id="Path_6020-4" data-name="Path 6020" d="M0,11.113V0H11.39" transform="translate(46.257) rotate(90)" fill="none" stroke="#313448" stroke-width="1"/>
      <path id="Path_6021-4" data-name="Path 6021" d="M0,11.113V0H11.39" transform="translate(0 46.812) rotate(-90)" fill="none" stroke="#313448" stroke-width="1"/>
    </g>
    <g id="Group_2737" data-name="Group 2737" transform="translate(-4452.95 -10024.244)">
      <path id="Path_6019-5" data-name="Path 6019" d="M-6097-11811.887V-11823h11.391" transform="translate(6097 11823.139)" fill="none" stroke="#313448" stroke-width="1"/>
      <path id="Path_6022-5" data-name="Path 6022" d="M0,11.113V0H11.39" transform="translate(46.257 46.674) rotate(180)" fill="none" stroke="#313448" stroke-width="1"/>
      <path id="Path_6020-5" data-name="Path 6020" d="M0,11.113V0H11.39" transform="translate(46.257) rotate(90)" fill="none" stroke="#313448" stroke-width="1"/>
      <path id="Path_6021-5" data-name="Path 6021" d="M0,11.113V0H11.39" transform="translate(0 46.812) rotate(-90)" fill="none" stroke="#313448" stroke-width="1"/>
    </g>
  </g>
</svg>
