<svg id="Group_2203" data-name="Group 2203" xmlns="http://www.w3.org/2000/svg" width="14.961" height="14.961" viewBox="0 0 14.961 14.961">
  <g id="Group_1335" data-name="Group 1335" transform="translate(0 0)">
    <path id="Path_4232" data-name="Path 4232" d="M-40.518,1020.908h-6.861a4.054,4.054,0,0,0-4.05,4.05v6.861a4.054,4.054,0,0,0,4.05,4.05h6.861a4.054,4.054,0,0,0,4.05-4.05v-6.861A4.054,4.054,0,0,0-40.518,1020.908Zm3.173,10.911a3.176,3.176,0,0,1-3.173,3.173h-6.861a3.176,3.176,0,0,1-3.173-3.173v-6.861a3.176,3.176,0,0,1,3.173-3.173h6.861a3.176,3.176,0,0,1,3.173,3.173Z" transform="translate(51.429 -1020.908)" fill="#313448"/>
    <path id="Path_4233" data-name="Path 4233" d="M25.359,1093.6a4.091,4.091,0,1,0,4.091,4.091A4.1,4.1,0,0,0,25.359,1093.6Zm0,7.3a3.214,3.214,0,1,1,3.214-3.214A3.217,3.217,0,0,1,25.359,1100.909Z" transform="translate(-17.878 -1090.215)" fill="#313448"/>
    <path id="Path_4234" data-name="Path 4234" d="M174.116,1062.447a1.209,1.209,0,1,0,1.209,1.209A1.21,1.21,0,0,0,174.116,1062.447Zm0,1.54a.332.332,0,1,1,.332-.332A.332.332,0,0,1,174.116,1063.987Z" transform="translate(-162.447 -1060.51)" fill="#313448"/>
  </g>
</svg>
