<svg id="_2111532" data-name="2111532" xmlns="http://www.w3.org/2000/svg" width="11.602" height="11.602" viewBox="0 0 11.602 11.602">
  <path id="Path_4416" data-name="Path 4416" d="M15.984,15.515h0V11.259c0-2.082-.448-3.685-2.882-3.685A2.526,2.526,0,0,0,10.83,8.825H10.8V7.768H8.489v7.746h2.4V11.679c0-1.01.191-1.986,1.442-1.986,1.232,0,1.251,1.152,1.251,2.051v3.771Z" transform="translate(-4.385 -3.913)" fill="#313448"/>
  <path id="Path_4417" data-name="Path 4417" d="M.4,7.977H2.8v7.746H.4Z" transform="translate(-0.205 -4.121)" fill="#313448"/>
  <path id="Path_4418" data-name="Path 4418" d="M1.393,0A1.4,1.4,0,1,0,2.786,1.393,1.394,1.394,0,0,0,1.393,0Z" fill="#313448"/>
</svg>
