<svg xmlns="http://www.w3.org/2000/svg" width="107.697" height="139.5" viewBox="0 0 107.697 139.5">
  <g id="lewy_profil" data-name="lewy profil" transform="translate(-874.151 -11561.396)">
    <text id="LEWY_PROFIL-2" data-name="LEWY PROFIL" transform="translate(874.651 11678.896)" fill="#313448" font-size="14" font-family="Barlow-Medium, Barlow" font-weight="500"><tspan x="10.894" y="14">LEWY PROFIL</tspan></text>
    <g id="Group_2594" data-name="Group 2594" transform="translate(897.709 11576.479)">
      <g id="Group_2582" data-name="Group 2582">
        <path id="Path_6001" data-name="Path 6001" d="M1758.449,406.328h0a1.676,1.676,0,0,0-.426,1.591l.437,2.541a5.725,5.725,0,0,1-7.1,6.938l-17.184-4.842a7.736,7.736,0,0,1-4.875-4.1l-.524-1.092" transform="translate(-1699.224 -342.78)" fill="none" stroke="#313448" stroke-linecap="round" stroke-linejoin="round" stroke-width="2"/>
        <path id="Path_6002" data-name="Path 6002" d="M1606.437,64.9s1.469,0,6.256-.575c3.5-.421-1.327-5.352.92-6.572l1.506-.786c2.552-1.331,4.649-2.756,1.919-7l-4.844-8.791a4.6,4.6,0,0,1,.377-5.361l.8-.964a1.648,1.648,0,0,0,.384-.934,15.78,15.78,0,0,0-.271-3.515,35.264,35.264,0,0,0-9.02-16.12c-3.215-3.167-16.274-10.665-30.9-9.062-11.284,1.237-18.127,6.092-21.018,15" transform="translate(-1550.897 -5)" fill="none" stroke="#313448" stroke-linecap="round" stroke-linejoin="round" stroke-width="2"/>
        <path id="Path_6003" data-name="Path 6003" d="M1756.206,477.034c-1.56,1.71-2.734,4.245-4.342,7.821" transform="translate(-1718.654 -402.29)" fill="none" stroke="#313448" stroke-linecap="round" stroke-linejoin="round" stroke-width="2"/>
        <path id="Path_6004" data-name="Path 6004" d="M1542.271,117.348c1.548,15.034,5.451,19.77,7.578,26.294a2.359,2.359,0,0,0,3.6,1.219c3.891-2.755,6.265-5.586,5.572-7.335-3.7-9.345-.159-16.992,4.748-16.989,1.45,0,4.615.5,5.879,5.247.654,2.459.925,2.819,3.838,2.417,4.6-.634,3.532-1.652,3.887-6.387a33.8,33.8,0,0,1,1.23-6.783c1.663-5.8.616-12.351-7.737-10.078-3.541.964-7.425,2.058-11.1,2.89a36.969,36.969,0,0,1-16.522.185A19.662,19.662,0,0,0,1542.271,117.348Z" transform="translate(-1542.135 -88.739)" fill="none" stroke="#e99c28" stroke-linecap="round" stroke-linejoin="round" stroke-width="2" stroke-dasharray="3 5"/>
        <path id="Path_6005" data-name="Path 6005" d="M1569.07,400.35c4.1-7.924,5.424-13.25,5.615-17.065" transform="translate(-1564.805 -323.386)" fill="none" stroke="#313448" stroke-linecap="round" stroke-linejoin="round" stroke-width="2"/>
      </g>
    </g>
    <g id="Group_2590" data-name="Group 2590" transform="translate(874.651 11561.896)">
      <path id="Path_6019" data-name="Path 6019" d="M-6097-11797.367V-11823h26.273" transform="translate(6097 11823.32)" fill="none" stroke="#313448" stroke-width="1"/>
      <path id="Path_6022" data-name="Path 6022" d="M0,25.633V0H26.274" transform="translate(106.697 107.66) rotate(180)" fill="none" stroke="#313448" stroke-width="1"/>
      <path id="Path_6020" data-name="Path 6020" d="M0,25.633V0H26.274" transform="translate(106.697) rotate(90)" fill="none" stroke="#313448" stroke-width="1"/>
      <path id="Path_6021" data-name="Path 6021" d="M0,25.633V0H26.274" transform="translate(0 107.979) rotate(-90)" fill="none" stroke="#313448" stroke-width="1"/>
    </g>
  </g>
</svg>
