<svg id="play-button" xmlns="http://www.w3.org/2000/svg" width="31" height="31" viewBox="0 0 31 31">
  <g id="Group_1990" data-name="Group 1990">
    <g id="Group_1989" data-name="Group 1989">
      <path id="Path_5580" data-name="Path 5580" d="M15.5,0A15.5,15.5,0,1,0,31,15.5,15.517,15.517,0,0,0,15.5,0Zm0,29.708A14.208,14.208,0,1,1,29.708,15.5,14.224,14.224,0,0,1,15.5,29.708Z" fill="#313448"/>
      <path id="Path_5581" data-name="Path 5581" d="M202.037,155.246,193,149.434a.646.646,0,0,0-1,.543V161.6a.646.646,0,0,0,1,.543l9.042-5.812a.646.646,0,0,0,0-1.086Zm-8.745,5.172V151.16l7.2,4.629Z" transform="translate(-180.375 -140.289)" fill="#313448"/>
    </g>
  </g>
</svg>
