<svg xmlns="http://www.w3.org/2000/svg" width="55" height="55" viewBox="0 0 55 55">
  <g id="Group_2447" data-name="Group 2447" transform="translate(-425 -1200)">
    <g id="Ellipse_37" data-name="Ellipse 37" transform="translate(480 1200) rotate(90)" fill="#ffffff40" stroke="#fff" stroke-width="1">
      <circle cx="27.5" cy="27.5" r="27.5" stroke="none"/>
      <circle cx="27.5" cy="27.5" r="27" fill="none"/>
    </g>
    <g id="right-arrow" transform="translate(461 1221.96)">
      <g id="Group_1988" data-name="Group 1988" transform="translate(0 0)">
        <path id="Path_5579" data-name="Path 5579" d="M5.53,5.893h0L.827,10.9a.45.45,0,0,1-.663.055.524.524,0,0,1-.051-.707A.484.484,0,0,1,.164,10.2l3.9-4.159a.765.765,0,0,0,.26-.5.783.783,0,0,0-.26-.5L.164.882A.524.524,0,0,1,.113.175.45.45,0,0,1,.776.121.485.485,0,0,1,.827.175l4.7,5.011A.525.525,0,0,1,5.53,5.893Z" transform="translate(0 0)" fill="#fff"/>
      </g>
    </g>
    <g id="right-arrow-2" data-name="right-arrow" transform="translate(439 1221.96)">
      <g id="Group_1988-2" data-name="Group 1988" transform="translate(0 0)">
        <path id="Path_5579-2" data-name="Path 5579" d="M.137,5.893h0L4.84,10.9a.45.45,0,0,0,.663.055.524.524,0,0,0,.051-.707A.484.484,0,0,0,5.5,10.2L1.6,6.038a.765.765,0,0,1-.26-.5.783.783,0,0,1,.26-.5L5.5.882A.524.524,0,0,0,5.554.175.45.45,0,0,0,4.891.121.485.485,0,0,0,4.84.175L.137,5.187A.525.525,0,0,0,.137,5.893Z" transform="translate(0 0)" fill="#fff"/>
      </g>
    </g>
  </g>
</svg>
