<svg id="Group_2447" data-name="Group 2447" xmlns="http://www.w3.org/2000/svg" width="19.333" height="19.333" viewBox="0 0 19.333 19.333">
  <path id="Path_5609" data-name="Path 5609" d="M19.333,2.215A2.217,2.217,0,0,0,17.118,0H2.215A2.217,2.217,0,0,0,0,2.215v14.9a2.217,2.217,0,0,0,2.215,2.215h14.9a2.217,2.217,0,0,0,2.215-2.215Zm0,0" fill="#c7bfb4"/>
  <path id="Path_5610" data-name="Path 5610" d="M150.558,165.564a.8.8,0,0,1,0,1.139l-5.236,5.236a.8.8,0,0,1-1.139,0l-2.618-2.618a.805.805,0,0,1,1.139-1.139l2.049,2.049,4.667-4.667A.8.8,0,0,1,150.558,165.564Zm0,0" transform="translate(-135.992 -159.085)" fill="#fafafa"/>
</svg>
