<svg xmlns="http://www.w3.org/2000/svg" width="12.37" height="14.079" viewBox="0 0 12.37 14.079">
  <g id="tik-tok" transform="translate(-31.423 -0.39)">
    <path id="Path_5565" data-name="Path 5565" d="M43.786,3.915A3.547,3.547,0,0,1,41.642,3.2,3.548,3.548,0,0,1,40.225.39h-2.3V6.672l0,3.441a2.084,2.084,0,1,1-1.429-1.974V5.8a4.524,4.524,0,0,0-.663-.049,4.408,4.408,0,0,0-3.312,1.481,4.32,4.32,0,0,0,.195,5.957,4.485,4.485,0,0,0,.415.363,4.409,4.409,0,0,0,2.7.914,4.524,4.524,0,0,0,.663-.049,4.394,4.394,0,0,0,2.454-1.227A4.3,4.3,0,0,0,40.24,10.13l-.012-5.138A5.825,5.825,0,0,0,43.792,6.2V3.915h-.007Z" fill="#313448"/>
  </g>
</svg>
