<svg xmlns="http://www.w3.org/2000/svg" width="107.697" height="139.5" viewBox="0 0 107.697 139.5">
  <g id="tyl" transform="translate(-738.803 -11561.396)">
    <text id="TYŁ" transform="translate(739.303 11678.896)" fill="#313448" font-size="14" font-family="Barlow-Medium, Barlow" font-weight="500"><tspan x="41.075" y="14">TYŁ</tspan></text>
    <g id="Group_2593" data-name="Group 2593" transform="translate(755.279 11574.603)">
      <g id="Group_2583" data-name="Group 2583" transform="translate(0 0)">
        <path id="Path_6006" data-name="Path 6006" d="M1037.022,406.328h0a1.675,1.675,0,0,1,.426,1.591l-.437,2.541a5.725,5.725,0,0,0,7.1,6.938l17.184-4.842a7.736,7.736,0,0,0,4.875-4.1l.525-1.092" transform="translate(-1028.823 -342.78)" fill="none" stroke="#313448" stroke-linecap="round" stroke-linejoin="round" stroke-width="2"/>
        <path id="Path_6007" data-name="Path 6007" d="M998.174,64.9s-1.469,0-6.256-.575c-3.5-.421,1.327-5.352-.92-6.572l-1.506-.786c-2.552-1.331-4.649-2.756-1.919-7l4.844-8.791a4.6,4.6,0,0,0-.377-5.361l-.8-.964a1.649,1.649,0,0,1-.383-.934,15.777,15.777,0,0,1,.271-3.515,35.26,35.26,0,0,1,9.02-16.12c3.215-3.167,16.274-10.665,30.9-9.062,11.284,1.237,18.127,6.092,21.018,15" transform="translate(-986.29 -5)" fill="none" stroke="#313448" stroke-linecap="round" stroke-linejoin="round" stroke-width="2"/>
        <path id="Path_6008" data-name="Path 6008" d="M1174.948,477.034c1.56,1.71,2.734,4.245,4.342,7.821" transform="translate(-1145.075 -402.29)" fill="none" stroke="#313448" stroke-linecap="round" stroke-linejoin="round" stroke-width="2"/>
        <g id="Group_2581" data-name="Group 2581" transform="translate(30.292 15.754)">
          <path id="Path_6010" data-name="Path 6010" d="M1214.653,112.876a24.581,24.581,0,0,1-.063,4.472c-1.548,15.035-5.451,19.77-7.578,26.294a2.359,2.359,0,0,1-3.6,1.219c-3.891-2.755-6.265-5.586-5.572-7.335,3.7-9.345.159-16.992-4.748-16.989-1.45,0-4.615.5-5.879,5.247-.654,2.459-.925,2.818-3.838,2.417-4.6-.634-3.532-1.652-3.887-6.386a33.79,33.79,0,0,0-1.23-6.783c-1.663-5.8-.617-12.351,7.737-10.078,3.541.964,7.425,2.058,11.1,2.89a35.235,35.235,0,0,0,13.4.686C1213.548,108.095,1214.653,112.876,1214.653,112.876Z" transform="translate(-1177.594 -104.492)" fill="none" stroke="#e99c28" stroke-linecap="round" stroke-linejoin="round" stroke-width="2" stroke-dasharray="3 5"/>
        </g>
        <path id="Path_6011" data-name="Path 6011" d="M1355.316,400.35c-4.1-7.924-5.424-13.25-5.615-17.065" transform="translate(-1292.157 -323.386)" fill="none" stroke="#313448" stroke-linecap="round" stroke-linejoin="round" stroke-width="2"/>
      </g>
    </g>
    <g id="Group_2589" data-name="Group 2589" transform="translate(739.303 11561.896)">
      <path id="Path_6019" data-name="Path 6019" d="M-6097-11797.367V-11823h26.273" transform="translate(6097 11823.32)" fill="none" stroke="#313448" stroke-width="1"/>
      <path id="Path_6022" data-name="Path 6022" d="M0,25.633V0H26.274" transform="translate(106.697 107.66) rotate(180)" fill="none" stroke="#313448" stroke-width="1"/>
      <path id="Path_6020" data-name="Path 6020" d="M0,25.633V0H26.274" transform="translate(106.697) rotate(90)" fill="none" stroke="#313448" stroke-width="1"/>
      <path id="Path_6021" data-name="Path 6021" d="M0,25.633V0H26.274" transform="translate(0 107.979) rotate(-90)" fill="none" stroke="#313448" stroke-width="1"/>
    </g>
  </g>
</svg>
