<svg id="Group_2201" data-name="Group 2201" xmlns="http://www.w3.org/2000/svg" width="13.092" height="14.592" viewBox="0 0 13.092 14.592">
  <path id="Path_4236" data-name="Path 4236" d="M14.062,8.409v4.3a1.6,1.6,0,0,1-.171.739,1.911,1.911,0,0,1-.466.594,2.238,2.238,0,0,1-.68.4,2.356,2.356,0,0,1-.837.147H3.115a2.325,2.325,0,0,1-.827-.147,2.224,2.224,0,0,1-.681-.4,1.972,1.972,0,0,1-.467-.594,1.611,1.611,0,0,1-.17-.739v-4.3a1.624,1.624,0,0,1,.171-.73,1.858,1.858,0,0,1,.467-.6,2.374,2.374,0,0,1,.681-.4,2.262,2.262,0,0,1,.827-.152h8.792a2.3,2.3,0,0,1,.832.152,2.368,2.368,0,0,1,.686.4,1.84,1.84,0,0,1,.466.6A1.623,1.623,0,0,1,14.062,8.409ZM3.7,13.19V8.653H4.783V7.967H1.871v.666H2.8V13.19Zm.44-10.555L2.939,0H3.988l.6,1.97L5.186,0H6.233L5.1,2.635V5.7h-.96ZM6.978,9.319h-.9v2.422c0,.175,0,.312.009.405s-.007.156-.039.182a.34.34,0,0,1-.232.23c-.124.048-.221-.02-.288-.211a.462.462,0,0,1-.009-.19c.006-.1.009-.234.009-.4l-.019-2.44h-.9l.021,2.4c0,.189,0,.346-.011.474a1.141,1.141,0,0,0,.011.289c.012.106.024.217.038.339a.378.378,0,0,0,.187.289.679.679,0,0,0,.366.1,1.245,1.245,0,0,0,.413-.07A1.467,1.467,0,0,0,6,12.951a.834.834,0,0,0,.249-.261l-.018.479.744.019ZM6.153,3.038a3.46,3.46,0,0,1,.1-.891.9.9,0,0,1,.383-.521,1.108,1.108,0,0,1,.676-.2,1.424,1.424,0,0,1,.608.118.848.848,0,0,1,.4.343,1.3,1.3,0,0,1,.177.4,3.06,3.06,0,0,1,.058.657V3.978a4.04,4.04,0,0,1-.058.806,1.153,1.153,0,0,1-.2.5.871.871,0,0,1-.38.323,1.277,1.277,0,0,1-.56.117,1.669,1.669,0,0,1-.587-.1.607.607,0,0,1-.363-.283,1.377,1.377,0,0,1-.2-.442,4.124,4.124,0,0,1-.059-.8Zm.8,1.6a.393.393,0,0,0,.118.28.381.381,0,0,0,.283.121.394.394,0,0,0,.28-.118.376.376,0,0,0,.121-.284V2.509a.4.4,0,0,0-.121-.3.386.386,0,0,0-.279-.124.381.381,0,0,0-.278.124.4.4,0,0,0-.124.3Zm2.93,7.448V10.074a.88.88,0,0,0-.41-.823.631.631,0,0,0-.315-.079,1.33,1.33,0,0,0-.744.3V7.967h-.9v5.184l.745-.019.058-.323a1.68,1.68,0,0,0,.652.373.634.634,0,0,0,.49-.055.78.78,0,0,0,.313-.4A1.725,1.725,0,0,0,9.887,12.083ZM8.8,9.673a.446.446,0,0,1,.278.094.265.265,0,0,1,.122.21V12.25a.253.253,0,0,1-.122.2.468.468,0,0,1-.278.089.474.474,0,0,1-.281-.089.251.251,0,0,1-.12-.2V9.976a.265.265,0,0,1,.12-.21A.453.453,0,0,1,8.8,9.673Zm.42-4.37a.573.573,0,0,1-.048-.162,1.217,1.217,0,0,0-.031-.162,1.5,1.5,0,0,1-.019-.266V1.589h.843V4.7a.283.283,0,0,0,.087.206A.326.326,0,0,0,10.289,5a.341.341,0,0,0,.235-.088.269.269,0,0,0,.1-.206V1.589h.782v4h-1l.018-.323a1.581,1.581,0,0,1-.264.3.636.636,0,0,1-.343.1.665.665,0,0,1-.373-.1A.746.746,0,0,1,9.221,5.3Zm3.508,6.527h-.675v.44a.292.292,0,0,1-.113.244.417.417,0,0,1-.268.087h-.14a.38.38,0,0,1-.258-.087.3.3,0,0,1-.1-.244v-.932h1.559V10.8c0-.2,0-.4-.01-.582a2.151,2.151,0,0,0-.048-.435.641.641,0,0,0-.241-.428,1.1,1.1,0,0,0-.469-.22,1.49,1.49,0,0,0-.55-.02,1.094,1.094,0,0,0-.485.186,1.008,1.008,0,0,0-.381.482,2.39,2.39,0,0,0-.118.843V11.83a1.32,1.32,0,0,0,.4,1.087,1.222,1.222,0,0,0,.782.3h.08a1.213,1.213,0,0,0,.814-.392.941.941,0,0,0,.264-.695C12.761,12.041,12.75,11.939,12.729,11.83Zm-.7-1.149h-.862l.019-.479a.335.335,0,0,1,.118-.261.417.417,0,0,1,.285-.1h.039a.47.47,0,0,1,.3.1.327.327,0,0,1,.123.266Z" transform="translate(-0.97 0)" fill="#313448"/>
</svg>
