<svg xmlns="http://www.w3.org/2000/svg" width="111.795" height="78.677" viewBox="0 0 111.795 78.677">
  <g id="XMLID_822_" transform="translate(-1444.103 -1481.917)">
    <path id="XMLID_823_" d="M107.438,52.671c-4.035-4.8-11.486-6.754-25.715-6.754H30.071C15.517,45.917,7.94,48,3.92,53.107,0,58.087,0,65.424,0,75.578V94.933c0,19.673,4.651,29.661,30.071,29.661H81.723c12.339,0,19.177-1.727,23.6-5.96,4.536-4.341,6.472-11.429,6.472-23.7V75.578C111.8,64.869,111.492,57.489,107.438,52.671ZM71.773,87.928,48.318,100.186a3.606,3.606,0,0,1-5.277-3.2V72.552a3.606,3.606,0,0,1,5.268-3.2L71.764,81.531a3.606,3.606,0,0,1,.008,6.4Z" transform="translate(1444.103 1436)" fill="#fff"/>
  </g>
</svg>
